<svg width="1920" height="1080" viewBox="0 0 1920 1080" fill="none" xmlns="http://www.w3.org/2000/svg">
<g clip-path="url(#clip0_1_1207)">
<rect width="1920" height="1080" fill="#151B39"/>
<g opacity="0.1">
<path fill-rule="evenodd" clip-rule="evenodd" d="M1882.23 -611H34.6929L958.463 312.77L1882.23 -611Z" fill="#4CE8F2"/>
<path fill-rule="evenodd" clip-rule="evenodd" d="M986.229 1289H1910V365.226L986.229 1289Z" fill="#4CE8F2"/>
<path fill-rule="evenodd" clip-rule="evenodd" d="M986.23 338.997L1435 787.767L1883.77 338.997L1435 -109.774L986.23 338.997Z" fill="#4CE8F2"/>
<path fill-rule="evenodd" clip-rule="evenodd" d="M1461.23 -136.003L1910 312.767V-584.774L1461.23 -136.003Z" fill="#4CE8F2"/>
<path fill-rule="evenodd" clip-rule="evenodd" d="M36.2295 1289H941.453C941.453 1284.25 943.264 1279.51 946.885 1275.88L1390.22 832.546H492.682L36.2295 1289Z" fill="#4CE8F2"/>
<path fill-rule="evenodd" clip-rule="evenodd" d="M529.776 795.449H1390.22L960 365.225L529.776 795.449Z" fill="#4CE8F2"/>
<path fill-rule="evenodd" clip-rule="evenodd" d="M10 1262.77L933.77 338.997L10 -584.774V1262.77Z" fill="#4CE8F2"/>
</g>
</g>
<defs>
<clipPath id="clip0_1_1207">
<rect width="1920" height="1080" fill="white"/>
</clipPath>
</defs>
</svg>
