<svg width="2400" height="1600" viewBox="0 0 2400 1600" fill="none" xmlns="http://www.w3.org/2000/svg">
<g clip-path="url(#clip0_1059_8823)">
<rect width="800" height="800" fill="#151B39"/>
<rect x="332" y="465.711" width="331.131" height="331.131" transform="rotate(-45 332 465.711)" fill="#181F3F"/>
<rect x="586" y="714.759" width="85.9262" height="85.9262" transform="rotate(-45 586 714.759)" fill="#181F3F"/>
<path d="M316.5 484L24 776H609L316.5 484Z" fill="#181F3F"/>
<path d="M721 731L676 776H766L721 731Z" fill="#181F3F"/>
<path d="M412 354L766 -4.59446e-05L58 1.59507e-05L412 354Z" fill="#181F3F"/>
<path d="M800.131 203.738L800.131 0.130802L596.524 203.738L800.131 203.738Z" fill="#181F3F"/>
<path d="M801.827 226.869L801.827 432.173L596.523 226.869L801.827 226.869Z" fill="#181F3F"/>
<path d="M394 371.5L24 0.999984L24 742L394 371.5Z" fill="#181F3F"/>
<path d="M663 635L800 772L800 498L663 635Z" fill="#181F3F"/>
</g>
<g clip-path="url(#clip1_1059_8823)">
<rect width="800" height="800" transform="translate(800)" fill="#151B39"/>
<rect x="1132" y="465.711" width="331.131" height="331.131" transform="rotate(-45 1132 465.711)" fill="#181F3F"/>
<rect x="1386" y="714.759" width="85.9262" height="85.9262" transform="rotate(-45 1386 714.759)" fill="#181F3F"/>
<path d="M1116.5 484L824 776H1409L1116.5 484Z" fill="#181F3F"/>
<path d="M1521 731L1476 776H1566L1521 731Z" fill="#181F3F"/>
<path d="M1212 354L1566 -4.59446e-05L858 1.59507e-05L1212 354Z" fill="#181F3F"/>
<path d="M1600.13 203.738L1600.13 0.130802L1396.52 203.738L1600.13 203.738Z" fill="#181F3F"/>
<path d="M1601.83 226.869L1601.83 432.173L1396.52 226.869L1601.83 226.869Z" fill="#181F3F"/>
<path d="M1194 371.5L824 0.999984L824 742L1194 371.5Z" fill="#181F3F"/>
<path d="M1463 635L1600 772L1600 498L1463 635Z" fill="#181F3F"/>
</g>
<g clip-path="url(#clip2_1059_8823)">
<rect width="800" height="800" transform="translate(1600)" fill="#151B39"/>
<rect x="1932" y="465.711" width="331.131" height="331.131" transform="rotate(-45 1932 465.711)" fill="#181F3F"/>
<rect x="2186" y="714.759" width="85.9262" height="85.9262" transform="rotate(-45 2186 714.759)" fill="#181F3F"/>
<path d="M1916.5 484L1624 776H2209L1916.5 484Z" fill="#181F3F"/>
<path d="M2321 731L2276 776H2366L2321 731Z" fill="#181F3F"/>
<path d="M2012 354L2366 -4.59446e-05L1658 1.59507e-05L2012 354Z" fill="#181F3F"/>
<path d="M2400.13 203.738L2400.13 0.130802L2196.52 203.738L2400.13 203.738Z" fill="#181F3F"/>
<path d="M2401.83 226.869L2401.83 432.173L2196.52 226.869L2401.83 226.869Z" fill="#181F3F"/>
<path d="M1994 371.5L1624 0.999984L1624 742L1994 371.5Z" fill="#181F3F"/>
<path d="M2263 635L2400 772L2400 498L2263 635Z" fill="#181F3F"/>
</g>
<g clip-path="url(#clip3_1059_8823)">
<rect width="800" height="800" transform="matrix(-1 0 0 1 800 800)" fill="#151B39"/>
<rect width="331.131" height="331.131" transform="matrix(-0.707107 -0.707107 -0.707107 0.707107 468 1265.71)" fill="#181F3F"/>
<rect width="85.9262" height="85.9262" transform="matrix(-0.707107 -0.707107 -0.707107 0.707107 214 1514.76)" fill="#181F3F"/>
<path d="M483.5 1284L776 1576H191L483.5 1284Z" fill="#181F3F"/>
<path d="M79 1531L124 1576H34L79 1531Z" fill="#181F3F"/>
<path d="M388 1154L34 800L742 800L388 1154Z" fill="#181F3F"/>
<path d="M-0.130959 1003.74L-0.130924 800.131L203.476 1003.74L-0.130959 1003.74Z" fill="#181F3F"/>
<path d="M-1.82718 1026.87L-1.82714 1232.17L203.477 1026.87L-1.82718 1026.87Z" fill="#181F3F"/>
<path d="M406 1171.5L776 801L776 1542L406 1171.5Z" fill="#181F3F"/>
<path d="M137 1435L-1.69236e-05 1572L-4.94667e-06 1298L137 1435Z" fill="#181F3F"/>
</g>
<g clip-path="url(#clip4_1059_8823)">
<rect width="800" height="800" transform="matrix(-1 0 0 1 1600 800)" fill="#151B39"/>
<rect width="331.131" height="331.131" transform="matrix(-0.707107 -0.707107 -0.707107 0.707107 1268 1265.71)" fill="#181F3F"/>
<rect width="85.9262" height="85.9262" transform="matrix(-0.707107 -0.707107 -0.707107 0.707107 1014 1514.76)" fill="#181F3F"/>
<path d="M1283.5 1284L1576 1576H991L1283.5 1284Z" fill="#181F3F"/>
<path d="M879 1531L924 1576H834L879 1531Z" fill="#181F3F"/>
<path d="M1188 1154L834 800L1542 800L1188 1154Z" fill="#181F3F"/>
<path d="M799.869 1003.74L799.869 800.131L1003.48 1003.74L799.869 1003.74Z" fill="#181F3F"/>
<path d="M798.173 1026.87L798.173 1232.17L1003.48 1026.87L798.173 1026.87Z" fill="#181F3F"/>
<path d="M1206 1171.5L1576 801L1576 1542L1206 1171.5Z" fill="#181F3F"/>
<path d="M937 1435L800 1572L800 1298L937 1435Z" fill="#181F3F"/>
</g>
<g clip-path="url(#clip5_1059_8823)">
<rect width="800" height="800" transform="matrix(-1 0 0 1 2400 800)" fill="#151B39"/>
<rect width="331.131" height="331.131" transform="matrix(-0.707107 -0.707107 -0.707107 0.707107 2068 1265.71)" fill="#181F3F"/>
<rect width="85.9262" height="85.9262" transform="matrix(-0.707107 -0.707107 -0.707107 0.707107 1814 1514.76)" fill="#181F3F"/>
<path d="M2083.5 1284L2376 1576H1791L2083.5 1284Z" fill="#181F3F"/>
<path d="M1679 1531L1724 1576H1634L1679 1531Z" fill="#181F3F"/>
<path d="M1988 1154L1634 800L2342 800L1988 1154Z" fill="#181F3F"/>
<path d="M1599.87 1003.74L1599.87 800.131L1803.48 1003.74L1599.87 1003.74Z" fill="#181F3F"/>
<path d="M1598.17 1026.87L1598.17 1232.17L1803.48 1026.87L1598.17 1026.87Z" fill="#181F3F"/>
<path d="M2006 1171.5L2376 801L2376 1542L2006 1171.5Z" fill="#181F3F"/>
<path d="M1737 1435L1600 1572L1600 1298L1737 1435Z" fill="#181F3F"/>
</g>
<defs>
<clipPath id="clip0_1059_8823">
<rect width="800" height="800" fill="white"/>
</clipPath>
<clipPath id="clip1_1059_8823">
<rect width="800" height="800" fill="white" transform="translate(800)"/>
</clipPath>
<clipPath id="clip2_1059_8823">
<rect width="800" height="800" fill="white" transform="translate(1600)"/>
</clipPath>
<clipPath id="clip3_1059_8823">
<rect width="800" height="800" fill="white" transform="matrix(-1 0 0 1 800 800)"/>
</clipPath>
<clipPath id="clip4_1059_8823">
<rect width="800" height="800" fill="white" transform="matrix(-1 0 0 1 1600 800)"/>
</clipPath>
<clipPath id="clip5_1059_8823">
<rect width="800" height="800" fill="white" transform="matrix(-1 0 0 1 2400 800)"/>
</clipPath>
</defs>
</svg>
